<svg width="24" height="26" viewBox="0 0 24 26" fill="none" xmlns="http://www.w3.org/2000/svg">
<path d="M11.94 13.2022C17.3267 13.2022 21.7133 11.9456 22 10.3567V6.20389C21.7133 7.79278 17.3333 9.04945 11.94 9.04945C9.31245 9.10446 6.69216 8.73198 4.16667 7.94445V6.5C6.69285 7.28266 9.31312 7.65027 11.94 7.59056C17.3333 7.605 21.68 6.34833 22 4.77389C21.8667 2.31111 15.68 1.64667 12 1.64667C8.32 1.64667 2 2.31833 2 4.84611V21.1539C2 23.6744 8.28667 24.3533 12 24.3533C15.7133 24.3533 22 23.6817 22 21.1539V17.3983C21.7133 18.98 17.3333 20.2222 11.94 20.2222C9.31413 20.289 6.69387 19.9287 4.16667 19.1533V17.7089C6.69387 18.4842 9.31413 18.8445 11.94 18.7778C17.3333 18.7778 21.7133 17.5356 22 15.9539V11.8011C21.7133 13.39 17.3333 14.6467 11.94 14.6467C9.31312 14.7064 6.69285 14.3388 4.16667 13.5561V12.1117C6.69285 12.8943 9.31312 13.2619 11.94 13.2022V13.2022Z" fill="white"/>
</svg>
