<svg width="26" height="26" viewBox="0 0 26 26" fill="none" xmlns="http://www.w3.org/2000/svg">
<g clip-path="url(#clip0)">
<path d="M9.87501 3.90224e-07C9.72987 0.0215833 9.59125 0.0748429 9.46901 0.156C9.46901 0.156 8.20401 0.952 6.84401 1.813C5.48401 2.673 3.97101 3.621 3.62501 3.813C3.60366 3.82226 3.58265 3.83227 3.56201 3.843C2.30601 4.618 2.04501 5.884 2.00001 6.594C1.99701 6.627 2.00001 6.654 2.00001 6.689C1.98901 6.955 2.00001 7.126 2.00001 7.126V20.189C2.00001 22.087 4.21301 23 6.31301 23C7.01301 23 7.71301 22.887 8.31301 22.687C8.71301 22.487 9.00001 22.087 9.00001 21.687V11.187C9.00001 8.887 9.50001 7.807 11 6.907C11.4 6.707 15.594 3.812 15.594 3.812C15.794 3.612 16 3.206 16 2.906V2.812C16 2.412 15.8 2.106 15.5 1.906C15.2 1.706 14.8 1.706 14.5 1.906C14.4 2.006 8.30001 6.113 7.00001 6.813C5.70001 7.613 4.48701 7.806 4.18701 7.406C4.09401 7.313 4.01301 7.028 4.00001 6.75V6.719V6.687C4.00101 6.415 4.07101 5.903 4.62501 5.562C5.18701 5.249 6.58201 4.358 7.93801 3.5C8.51101 3.137 8.58201 3.098 9.03101 2.812C9.09011 3.05629 9.23904 3.26937 9.44815 3.40882C9.65727 3.54827 9.91122 3.60385 10.1595 3.56452C10.4077 3.52518 10.632 3.39381 10.7878 3.19654C10.9436 2.99928 11.0193 2.7506 11 2.5V1C11.0011 0.857465 10.9718 0.716338 10.9139 0.58608C10.856 0.455821 10.7709 0.339442 10.6644 0.244744C10.5579 0.150046 10.4323 0.0792173 10.2962 0.0370066C10.16 -0.00520408 10.0164 -0.0178214 9.87501 3.90224e-07V3.90224e-07ZM17.875 3.5C17.716 3.52645 17.5657 3.59095 17.437 3.688C17.437 3.688 12.403 7.075 11.531 7.656C11.5204 7.66644 11.5101 7.67711 11.5 7.688C10.776 8.231 10.347 8.877 10.156 9.468C10.021 9.887 10.001 10.229 10 10.5V10.813C9.99856 10.844 9.99856 10.875 10 10.906V23C10 24.9 12.188 26 14.188 26C15.088 26 15.9 25.806 16.5 25.406C17.7 24.706 23.5 20.188 23.5 20.188C23.8 19.988 24 19.706 24 19.406V6.406C24 5.906 23.806 5.606 23.406 5.406C23.106 5.206 22.613 5.3 22.313 5.5C20.713 6.7 16.406 10.088 15.406 10.688C14.006 11.488 12.687 11.688 12.187 11.188C11.987 10.988 12 10.8 12 10.5C12.006 10.328 12.025 10.18 12.063 10.062C12.119 9.888 12.233 9.674 12.656 9.344C12.676 9.328 12.666 9.329 12.687 9.313C13.41 8.83 15.621 7.323 17.063 6.343C17.1447 6.56217 17.3006 6.74577 17.5037 6.86186C17.7068 6.97795 17.9441 7.01919 18.1744 6.9784C18.4047 6.93762 18.6134 6.81739 18.7643 6.63863C18.9151 6.45987 18.9985 6.23389 19 6V4.5C19.0011 4.35747 18.9718 4.21634 18.9139 4.08608C18.856 3.95582 18.7709 3.83944 18.6644 3.74474C18.5579 3.65005 18.4323 3.57922 18.2962 3.53701C18.16 3.4948 18.0164 3.48218 17.875 3.5ZM22 10.813V12.813L17 16.687V14.687L22 10.813Z" fill="white"/>
</g>
<defs>
<clipPath id="clip0">
<rect width="26" height="26" fill="white"/>
</clipPath>
</defs>
</svg>
