<svg width="34" height="34" viewBox="0 0 34 34" fill="none" xmlns="http://www.w3.org/2000/svg">
<path d="M31.1665 17L26.4448 22.6667M18.4165 17H31.1665H18.4165ZM31.1665 17L26.4448 11.3334L31.1665 17Z" stroke="black" stroke-width="2" stroke-linecap="round" stroke-linejoin="round"/>
<path d="M19.8333 9.91673V7.3299C19.8332 6.93801 19.7519 6.55039 19.5945 6.19153C19.437 5.83267 19.2068 5.51038 18.9184 5.24503C18.63 4.97968 18.2897 4.77704 17.919 4.64992C17.5483 4.5228 17.1553 4.47395 16.7648 4.50648L5.43142 5.44998C4.72316 5.50897 4.06293 5.83198 3.58168 6.35496C3.10042 6.87794 2.83329 7.56268 2.83325 8.2734V25.7267C2.83329 26.4374 3.10042 27.1222 3.58168 27.6452C4.06293 28.1681 4.72316 28.4912 5.43142 28.5501L16.7648 29.4951C17.1554 29.5276 17.5486 29.4787 17.9194 29.3515C18.2901 29.2243 18.6305 29.0215 18.9189 28.756C19.2073 28.4905 19.4375 28.1681 19.5949 27.809C19.7523 27.45 19.8334 27.0622 19.8333 26.6702V24.0834" stroke="black" stroke-width="2" stroke-linecap="round" stroke-linejoin="round"/>
</svg>
