<svg width="34" height="34" viewBox="0 0 34 34" fill="none" xmlns="http://www.w3.org/2000/svg">
<path d="M12.75 4.25C13.8007 4.25 14.8278 4.56157 15.7015 5.14532C16.5751 5.72906 17.256 6.55876 17.6581 7.52949C18.0602 8.50023 18.1654 9.56839 17.9604 10.5989C17.7554 11.6294 17.2495 12.576 16.5065 13.319C15.7635 14.062 14.8169 14.5679 13.7864 14.7729C12.7559 14.9779 11.6877 14.8727 10.717 14.4706C9.74627 14.0685 8.91657 13.3876 8.33282 12.514C7.74908 11.6403 7.4375 10.6132 7.4375 9.5625C7.4375 8.15354 7.99721 6.80228 8.9935 5.806C9.98979 4.80971 11.341 4.25 12.75 4.25ZM12.75 2.125C11.279 2.125 9.84104 2.5612 8.61795 3.37844C7.39486 4.19569 6.44158 5.35727 5.87865 6.71629C5.31572 8.07532 5.16844 9.57075 5.45541 11.0135C5.74239 12.4562 6.45074 13.7815 7.4909 14.8216C8.53105 15.8618 9.85629 16.5701 11.299 16.8571C12.7418 17.1441 14.2372 16.9968 15.5962 16.4339C16.9552 15.8709 18.1168 14.9176 18.9341 13.6946C19.7513 12.4715 20.1875 11.0335 20.1875 9.5625C20.1875 7.58995 19.4039 5.69819 18.0091 4.30339C16.6143 2.90859 14.7226 2.125 12.75 2.125Z" fill="black"/>
<path d="M23.375 31.875H21.25V26.5625C21.25 25.1535 20.6903 23.8023 19.694 22.806C18.6977 21.8097 17.3465 21.25 15.9375 21.25H9.5625C8.15354 21.25 6.80228 21.8097 5.806 22.806C4.80971 23.8023 4.25 25.1535 4.25 26.5625V31.875H2.125V26.5625C2.125 24.59 2.90859 22.6982 4.30339 21.3034C5.69819 19.9086 7.58995 19.125 9.5625 19.125H15.9375C17.91 19.125 19.8018 19.9086 21.1966 21.3034C22.5914 22.6982 23.375 24.59 23.375 26.5625V31.875Z" fill="black"/>
<path d="M23.375 4.25H34V6.375H23.375V4.25Z" fill="black"/>
<path d="M23.375 9.5625H34V11.6875H23.375V9.5625Z" fill="black"/>
<path d="M23.375 14.875H30.8125V17H23.375V14.875Z" fill="black"/>
</svg>
