<svg width="16" height="16" viewBox="0 0 16 16" fill="none" xmlns="http://www.w3.org/2000/svg">
<path d="M13.8516 0.136719H2.20815C1.06765 0.136719 0.139648 1.06497 0.139648 2.20597V13.848C0.139648 14.9892 1.0679 15.9177 2.20815 15.9177H13.8516C14.9926 15.9177 15.9206 14.9895 15.9206 13.848V2.20597C15.9206 1.06497 14.9926 0.136719 13.8516 0.136719V0.136719ZM8.8394 4.14797C9.05556 4.14794 9.26962 4.19049 9.46933 4.2732C9.66905 4.3559 9.85052 4.47715 10.0034 4.63C10.1562 4.78285 10.2775 4.96432 10.3602 5.16403C10.4429 5.36375 10.4854 5.5778 10.4854 5.79397C10.4854 6.70247 9.74815 7.44047 8.8394 7.44047C7.93065 7.44047 7.1934 6.70247 7.1934 5.79397C7.19337 5.5778 7.23592 5.36375 7.31863 5.16403C7.40133 4.96432 7.52258 4.78285 7.67543 4.63C7.82828 4.47715 8.00975 4.3559 8.20946 4.2732C8.40918 4.19049 8.62323 4.14794 8.8394 4.14797V4.14797ZM2.04765 4.66872V3.35147H3.3649V2.03422H4.68215V3.35147H5.9994V4.66872H4.68215V5.98572H3.3649V4.66872H2.04765ZM13.1599 13.2645C13.0379 13.2645 12.9206 13.2407 12.8136 13.1977L11.3481 12.79V14.2507H6.2609V12.79L4.7959 13.1977C4.68576 13.2417 4.56825 13.2644 4.44965 13.2645C4.2794 13.2644 4.11238 13.218 3.96647 13.1302C3.82056 13.0425 3.70126 12.9167 3.62133 12.7664C3.54141 12.6161 3.50387 12.4469 3.51273 12.2768C3.52159 12.1068 3.57653 11.9424 3.67165 11.8012L6.02165 8.57897C6.27665 8.22947 6.6329 7.84022 7.38415 7.84022H10.2249C10.9759 7.84022 11.3324 8.22972 11.5871 8.57897L13.9369 11.8012C14.0417 11.9561 14.0976 12.1389 14.0974 12.326C14.0972 12.5747 13.9983 12.8132 13.8225 12.9892C13.6466 13.1651 13.4082 13.2641 13.1594 13.2645H13.1599Z" fill="#FF0000"/>
<path d="M6.26074 8.96704V10.921L6.43874 10.861C7.74924 10.4748 8.25899 12.205 6.94874 12.5905L6.90674 12.6023L8.80474 13.2305L10.703 12.6023L10.6602 12.5905C9.35074 12.205 9.86049 10.4748 11.17 10.861L11.349 10.921V8.96704L8.80474 9.79829L6.26074 8.96704Z" fill="#FF0000"/>
</svg>
