<svg width="30" height="27" viewBox="0 0 30 27" fill="none" xmlns="http://www.w3.org/2000/svg">
<path d="M19.2 6.16667V3.85417C19.2 1.69583 17.1 0 15 0C12.9 0 10.8 1.69583 10.8 3.85417V6.16667C9.9 6.16667 9 7.09167 9 8.01667V13.4125C9 14.4917 9.9 15.4167 10.8 15.4167H19.05C20.1 15.4167 21 14.4917 21 13.5667V8.17083C21 7.09167 20.1 6.16667 19.2 6.16667ZM17.25 6.16667H12.75V3.85417C12.75 2.62083 13.8 1.85 15 1.85C16.2 1.85 17.25 2.62083 17.25 3.85417V6.16667ZM6 21.5833V26.2083L0 20.0417L6 13.875V18.5H24V13.875L30 20.0417L24 26.2083V21.5833H6Z" fill="black"/>
</svg>
