<svg width="30" height="31" viewBox="0 0 30 31" fill="none" xmlns="http://www.w3.org/2000/svg">
<path d="M12.5834 18.5783L22.5001 24.33L24.6251 20.6466L26.7501 28.3816L18.9584 30.4641L21.0834 26.7808L11.1667 21.0433L1.49089 26.625L0.0742188 24.1741L9.75005 18.5783V3.24996H12.5834V18.5783ZM27.8834 6.08329C28.7334 6.08329 29.5834 6.93329 29.5834 7.92496V12.8833C29.5834 13.7333 28.7334 14.5833 27.7417 14.5833H19.9501C19.1001 14.5833 18.2501 13.7333 18.2501 12.7416V7.78329C18.2501 6.93329 19.1001 6.08329 19.9501 6.08329V3.95829C19.9501 1.97496 21.9334 0.416626 23.9167 0.416626C25.9001 0.416626 27.8834 1.97496 27.8834 3.95829V6.08329ZM26.0417 6.08329V3.95829C26.0417 2.82496 25.0501 2.11663 23.9167 2.11663C22.7834 2.11663 21.7917 2.82496 21.7917 3.95829V6.08329H26.0417Z" fill="black"/>
</svg>
